<svg id="nav_channel_normal_24" viewBox="0 0 24 24" fill="none" xmlns="http://www.w3.org/2000/svg"><path fill-rule="evenodd" clip-rule="evenodd" d="M8.9917 2.86274C9.05391 2.45322 8.77236 2.07081 8.36284 2.00861C7.95332 1.9464 7.57092 2.22796 7.50871 2.63747L6.93589 6.40858H3.14456C2.73035 6.40858 2.39456 6.74436 2.39456 7.15858C2.39456 7.57279 2.73035 7.90858 3.14456 7.90858H6.70804L5.59592 15.23H1.75002C1.3358 15.23 1.00002 15.5658 1.00002 15.98C1.00002 16.3942 1.3358 16.73 1.75002 16.73H5.36807L4.72346 20.9737C4.66126 21.3832 4.94281 21.7656 5.35233 21.8278C5.76184 21.89 6.14425 21.6085 6.20645 21.199L6.88528 16.73H12.0111L14.9428 21.4208C15.4262 22.1943 16.6124 21.9393 16.7352 21.0354L17.3195 16.7327H20.7843C21.1985 16.7327 21.5343 16.3969 21.5343 15.9827C21.5343 15.5685 21.1985 15.2327 20.7843 15.2327H17.5232L18.5178 7.90858H22.1771C22.5913 7.90858 22.9271 7.57279 22.9271 7.15858C22.9271 6.74436 22.5913 6.40858 22.1771 6.40858H18.7215L19.2046 2.85103C19.2604 2.44058 18.9728 2.06267 18.5624 2.00693C18.1519 1.95119 17.774 2.23873 17.7183 2.64918L17.2077 6.40858H8.45309L8.9917 2.86274ZM17.004 7.90858H8.22525L7.11312 15.23H12.1155C12.5677 15.23 12.9881 15.463 13.2278 15.8466L15.4444 19.3932L17.004 7.90858Z" fill="currentColor"></path></svg>